<mxfile host="app.diagrams.net" modified="2020-12-04T05:21:51.528Z" agent="5.0 (Windows NT 10.0; Win64; x64) AppleWebKit/537.36 (KHTML, like Gecko) Chrome/87.0.4280.88 Safari/537.36" etag="dvCboIOrm1U2Ih5f0-FY" version="13.10.8" type="github">
  <diagram id="kgpKYQtTHZ0yAKxKKP6v" name="Page-1">
    <mxGraphModel dx="1718" dy="482" grid="1" gridSize="10" guides="1" tooltips="1" connect="1" arrows="1" fold="1" page="1" pageScale="1" pageWidth="850" pageHeight="1100" math="0" shadow="0">
      <root>
        <mxCell id="0" />
        <mxCell id="1" parent="0" />
        <mxCell id="k6oxgYFFSl6XpWiv2npr-46" value="CheckÂ  for Credentials" style="verticalAlign=bottom;endArrow=block;shadow=0;strokeWidth=1;" edge="1" parent="1">
          <mxGeometry relative="1" as="geometry">
            <mxPoint x="282" y="802" as="sourcePoint" />
            <mxPoint x="592" y="802" as="targetPoint" />
          </mxGeometry>
        </mxCell>
        <mxCell id="k6oxgYFFSl6XpWiv2npr-64" value="" style="endArrow=none;dashed=1;html=1;exitX=0;exitY=0.27;exitDx=0;exitDy=0;exitPerimeter=0;" edge="1" parent="1">
          <mxGeometry width="50" height="50" relative="1" as="geometry">
            <mxPoint x="-11" y="580" as="sourcePoint" />
            <mxPoint x="688" y="582" as="targetPoint" />
          </mxGeometry>
        </mxCell>
        <mxCell id="k6oxgYFFSl6XpWiv2npr-36" value="Login Success" style="verticalAlign=bottom;endArrow=open;dashed=1;endSize=8;shadow=0;strokeWidth=1;entryX=1.1;entryY=0.274;entryDx=0;entryDy=0;entryPerimeter=0;" edge="1" parent="1">
          <mxGeometry relative="1" as="geometry">
            <mxPoint x="125" y="570" as="targetPoint" />
            <mxPoint x="278.5" y="570" as="sourcePoint" />
          </mxGeometry>
        </mxCell>
        <mxCell id="k6oxgYFFSl6XpWiv2npr-41" value="Password Changed" style="verticalAlign=bottom;endArrow=open;dashed=1;endSize=8;exitX=0.5;exitY=0.49;shadow=0;strokeWidth=1;exitDx=0;exitDy=0;exitPerimeter=0;entryX=1.2;entryY=0.876;entryDx=0;entryDy=0;entryPerimeter=0;" edge="1" parent="1" target="k6oxgYFFSl6XpWiv2npr-54">
          <mxGeometry relative="1" as="geometry">
            <mxPoint x="279.75" y="830" as="targetPoint" />
            <mxPoint x="600.25" y="830" as="sourcePoint" />
          </mxGeometry>
        </mxCell>
        <mxCell id="k6oxgYFFSl6XpWiv2npr-40" value="Check Security" style="verticalAlign=bottom;endArrow=block;shadow=0;strokeWidth=1;exitX=0.9;exitY=0.468;exitDx=0;exitDy=0;exitPerimeter=0;entryX=-0.2;entryY=0.059;entryDx=0;entryDy=0;entryPerimeter=0;" edge="1" parent="1" target="k6oxgYFFSl6XpWiv2npr-52">
          <mxGeometry relative="1" as="geometry">
            <mxPoint x="282" y="680" as="sourcePoint" />
            <mxPoint x="590" y="680" as="targetPoint" />
          </mxGeometry>
        </mxCell>
        <mxCell id="k6oxgYFFSl6XpWiv2npr-44" value="Send Email to Reset Password" style="verticalAlign=bottom;endArrow=block;shadow=0;strokeWidth=1;exitX=0.51;exitY=0.669;exitDx=0;exitDy=0;exitPerimeter=0;" edge="1" parent="1" target="k6oxgYFFSl6XpWiv2npr-54">
          <mxGeometry relative="1" as="geometry">
            <mxPoint x="600.75" y="719.9990000000001" as="sourcePoint" />
            <mxPoint x="279.25" y="719.9990000000001" as="targetPoint" />
          </mxGeometry>
        </mxCell>
        <mxCell id="k6oxgYFFSl6XpWiv2npr-34" value="User Detected" style="verticalAlign=bottom;endArrow=open;dashed=1;endSize=8;exitX=0.5;exitY=0.49;shadow=0;strokeWidth=1;exitDx=0;exitDy=0;exitPerimeter=0;entryX=1.1;entryY=0.064;entryDx=0;entryDy=0;entryPerimeter=0;" edge="1" parent="1" target="k6oxgYFFSl6XpWiv2npr-54">
          <mxGeometry relative="1" as="geometry">
            <mxPoint x="279.5" y="560.8899999999999" as="targetPoint" />
            <mxPoint x="600" y="560.8899999999999" as="sourcePoint" />
          </mxGeometry>
        </mxCell>
        <mxCell id="k6oxgYFFSl6XpWiv2npr-37" value="User Not Detected" style="verticalAlign=bottom;endArrow=open;dashed=1;endSize=8;exitX=0.5;exitY=0.49;shadow=0;strokeWidth=1;exitDx=0;exitDy=0;exitPerimeter=0;entryX=1.1;entryY=0.182;entryDx=0;entryDy=0;entryPerimeter=0;" edge="1" parent="1" target="k6oxgYFFSl6XpWiv2npr-54">
          <mxGeometry relative="1" as="geometry">
            <mxPoint x="279.75" y="599.9999999999999" as="targetPoint" />
            <mxPoint x="600.25" y="599.9999999999999" as="sourcePoint" />
          </mxGeometry>
        </mxCell>
        <mxCell id="k6oxgYFFSl6XpWiv2npr-38" value="Access Denied" style="verticalAlign=bottom;endArrow=open;dashed=1;endSize=8;shadow=0;strokeWidth=1;entryX=1.1;entryY=0.274;entryDx=0;entryDy=0;entryPerimeter=0;" edge="1" parent="1">
          <mxGeometry relative="1" as="geometry">
            <mxPoint x="125" y="610" as="targetPoint" />
            <mxPoint x="278.5" y="610" as="sourcePoint" />
          </mxGeometry>
        </mxCell>
        <mxCell id="k6oxgYFFSl6XpWiv2npr-39" value="Forget Password" style="verticalAlign=bottom;endArrow=block;entryX=0;entryY=0.333;shadow=0;strokeWidth=1;entryDx=0;entryDy=0;entryPerimeter=0;" edge="1" parent="1" target="k6oxgYFFSl6XpWiv2npr-54">
          <mxGeometry relative="1" as="geometry">
            <mxPoint x="120" y="650" as="sourcePoint" />
            <mxPoint x="280" y="650" as="targetPoint" />
          </mxGeometry>
        </mxCell>
        <mxCell id="k6oxgYFFSl6XpWiv2npr-48" value="Change Password" style="verticalAlign=bottom;endArrow=open;dashed=1;endSize=8;shadow=0;strokeWidth=1;" edge="1" parent="1" target="3nuBFxr9cyL0pnOWT2aG-1">
          <mxGeometry relative="1" as="geometry">
            <mxPoint x="135" y="620" as="targetPoint" />
            <mxPoint x="120" y="780" as="sourcePoint" />
          </mxGeometry>
        </mxCell>
        <mxCell id="k6oxgYFFSl6XpWiv2npr-58" value="Alternatif" style="shape=umlFrame;whiteSpace=wrap;html=1;" vertex="1" parent="1">
          <mxGeometry x="-10" y="180" width="700" height="280" as="geometry" />
        </mxCell>
        <mxCell id="3nuBFxr9cyL0pnOWT2aG-1" value="Login" style="shape=umlLifeline;perimeter=lifelinePerimeter;container=1;collapsible=0;recursiveResize=0;rounded=0;shadow=0;strokeWidth=1;" parent="1" vertex="1">
          <mxGeometry x="230" y="80" width="100" height="840" as="geometry" />
        </mxCell>
        <mxCell id="k6oxgYFFSl6XpWiv2npr-53" value="" style="points=[];perimeter=orthogonalPerimeter;rounded=0;shadow=0;strokeWidth=1;" vertex="1" parent="3nuBFxr9cyL0pnOWT2aG-1">
          <mxGeometry x="45" y="400" width="10" height="20" as="geometry" />
        </mxCell>
        <mxCell id="k6oxgYFFSl6XpWiv2npr-54" value="" style="points=[];perimeter=orthogonalPerimeter;rounded=0;shadow=0;strokeWidth=1;" vertex="1" parent="3nuBFxr9cyL0pnOWT2aG-1">
          <mxGeometry x="45" y="460" width="10" height="330" as="geometry" />
        </mxCell>
        <mxCell id="PirwBWnHNCnHCgOqN0eg-1" value="User&lt;br&gt;(Pasien &amp;amp; Dokter)" style="shape=umlActor;verticalLabelPosition=bottom;verticalAlign=top;outlineConnect=0;html=1;" vertex="1" parent="1">
          <mxGeometry x="105" y="70" width="30" height="60" as="geometry" />
        </mxCell>
        <mxCell id="k6oxgYFFSl6XpWiv2npr-5" value="" style="endArrow=none;dashed=1;html=1;" edge="1" parent="1">
          <mxGeometry width="50" height="50" relative="1" as="geometry">
            <mxPoint x="120" y="187" as="sourcePoint" />
            <mxPoint x="120" y="120" as="targetPoint" />
          </mxGeometry>
        </mxCell>
        <mxCell id="k6oxgYFFSl6XpWiv2npr-12" value="Request Login" style="verticalAlign=bottom;endArrow=block;shadow=0;strokeWidth=1;" edge="1" parent="1" target="k6oxgYFFSl6XpWiv2npr-10">
          <mxGeometry relative="1" as="geometry">
            <mxPoint x="120" y="200" as="sourcePoint" />
            <mxPoint x="525" y="410.0000000000001" as="targetPoint" />
          </mxGeometry>
        </mxCell>
        <mxCell id="k6oxgYFFSl6XpWiv2npr-21" value="" style="endArrow=none;dashed=1;html=1;" edge="1" parent="1">
          <mxGeometry width="50" height="50" relative="1" as="geometry">
            <mxPoint x="120" y="920" as="sourcePoint" />
            <mxPoint x="120" y="190" as="targetPoint" />
          </mxGeometry>
        </mxCell>
        <mxCell id="k6oxgYFFSl6XpWiv2npr-9" value="Request Accepted" style="verticalAlign=bottom;endArrow=open;dashed=1;endSize=8;shadow=0;strokeWidth=1;" edge="1" parent="1" source="3nuBFxr9cyL0pnOWT2aG-1">
          <mxGeometry relative="1" as="geometry">
            <mxPoint x="120" y="239" as="targetPoint" />
            <mxPoint x="279" y="440" as="sourcePoint" />
          </mxGeometry>
        </mxCell>
        <mxCell id="k6oxgYFFSl6XpWiv2npr-23" value="Request Register" style="verticalAlign=bottom;endArrow=block;shadow=0;strokeWidth=1;entryX=-0.1;entryY=0.022;entryDx=0;entryDy=0;entryPerimeter=0;" edge="1" parent="1" target="k6oxgYFFSl6XpWiv2npr-51">
          <mxGeometry relative="1" as="geometry">
            <mxPoint x="120" y="281" as="sourcePoint" />
            <mxPoint x="440" y="280.99" as="targetPoint" />
          </mxGeometry>
        </mxCell>
        <mxCell id="k6oxgYFFSl6XpWiv2npr-22" value="Request Accepted" style="verticalAlign=bottom;endArrow=open;dashed=1;endSize=8;shadow=0;strokeWidth=1;" edge="1" parent="1">
          <mxGeometry relative="1" as="geometry">
            <mxPoint x="120" y="321" as="targetPoint" />
            <mxPoint x="439.5" y="321" as="sourcePoint" />
          </mxGeometry>
        </mxCell>
        <mxCell id="k6oxgYFFSl6XpWiv2npr-26" value="Enter email, password, etc" style="verticalAlign=bottom;endArrow=block;shadow=0;strokeWidth=1;entryX=0.1;entryY=0.456;entryDx=0;entryDy=0;entryPerimeter=0;" edge="1" parent="1" target="k6oxgYFFSl6XpWiv2npr-51">
          <mxGeometry relative="1" as="geometry">
            <mxPoint x="120" y="359" as="sourcePoint" />
            <mxPoint x="443" y="358.99" as="targetPoint" />
          </mxGeometry>
        </mxCell>
        <mxCell id="k6oxgYFFSl6XpWiv2npr-27" value="Check for Credentials" style="verticalAlign=bottom;endArrow=block;entryX=-0.1;entryY=0.286;shadow=0;strokeWidth=1;entryDx=0;entryDy=0;entryPerimeter=0;" edge="1" parent="1" target="k6oxgYFFSl6XpWiv2npr-49">
          <mxGeometry relative="1" as="geometry">
            <mxPoint x="440" y="390" as="sourcePoint" />
            <mxPoint x="600" y="390" as="targetPoint" />
          </mxGeometry>
        </mxCell>
        <mxCell id="k6oxgYFFSl6XpWiv2npr-28" value="Account Created" style="verticalAlign=bottom;endArrow=open;dashed=1;endSize=8;exitX=0.49;exitY=0.53;shadow=0;strokeWidth=1;exitDx=0;exitDy=0;exitPerimeter=0;entryX=1.1;entryY=0.274;entryDx=0;entryDy=0;entryPerimeter=0;" edge="1" parent="1">
          <mxGeometry relative="1" as="geometry">
            <mxPoint x="440" y="427.05999999999995" as="targetPoint" />
            <mxPoint x="593" y="427" as="sourcePoint" />
          </mxGeometry>
        </mxCell>
        <mxCell id="k6oxgYFFSl6XpWiv2npr-30" value="Register Success" style="verticalAlign=bottom;endArrow=open;dashed=1;endSize=8;shadow=0;strokeWidth=1;" edge="1" parent="1">
          <mxGeometry relative="1" as="geometry">
            <mxPoint x="120" y="450" as="targetPoint" />
            <mxPoint x="439.5" y="450" as="sourcePoint" />
          </mxGeometry>
        </mxCell>
        <mxCell id="k6oxgYFFSl6XpWiv2npr-32" value="Enter email, password" style="verticalAlign=bottom;endArrow=block;entryX=0.5;entryY=0.4;shadow=0;strokeWidth=1;entryDx=0;entryDy=0;entryPerimeter=0;" edge="1" parent="1">
          <mxGeometry relative="1" as="geometry">
            <mxPoint x="120" y="490" as="sourcePoint" />
            <mxPoint x="280" y="490" as="targetPoint" />
          </mxGeometry>
        </mxCell>
        <mxCell id="k6oxgYFFSl6XpWiv2npr-33" value="Check for credentials" style="verticalAlign=bottom;endArrow=block;shadow=0;strokeWidth=1;exitX=0.9;exitY=0.468;exitDx=0;exitDy=0;exitPerimeter=0;entryX=-0.4;entryY=0.174;entryDx=0;entryDy=0;entryPerimeter=0;" edge="1" parent="1" target="k6oxgYFFSl6XpWiv2npr-50">
          <mxGeometry relative="1" as="geometry">
            <mxPoint x="122" y="520" as="sourcePoint" />
            <mxPoint x="438" y="520.07" as="targetPoint" />
          </mxGeometry>
        </mxCell>
        <mxCell id="k6oxgYFFSl6XpWiv2npr-45" value="Request to Reset Password" style="verticalAlign=bottom;endArrow=block;shadow=0;strokeWidth=1;" edge="1" parent="1">
          <mxGeometry relative="1" as="geometry">
            <mxPoint x="273" y="744" as="sourcePoint" />
            <mxPoint x="120" y="744" as="targetPoint" />
          </mxGeometry>
        </mxCell>
        <mxCell id="k6oxgYFFSl6XpWiv2npr-47" value="Login Success" style="verticalAlign=bottom;endArrow=block;shadow=0;strokeWidth=1;exitX=0.47;exitY=0.706;exitDx=0;exitDy=0;exitPerimeter=0;" edge="1" parent="1">
          <mxGeometry relative="1" as="geometry">
            <mxPoint x="275" y="859.9999999999999" as="sourcePoint" />
            <mxPoint x="118" y="860.36" as="targetPoint" />
          </mxGeometry>
        </mxCell>
        <mxCell id="k6oxgYFFSl6XpWiv2npr-56" value="Validation" style="verticalAlign=bottom;endArrow=block;shadow=0;strokeWidth=1;" edge="1" parent="1">
          <mxGeometry x="0.2857" y="-30" relative="1" as="geometry">
            <mxPoint x="605" y="396" as="sourcePoint" />
            <mxPoint x="605" y="416" as="targetPoint" />
            <Array as="points">
              <mxPoint x="630" y="396" />
              <mxPoint x="630" y="416" />
            </Array>
            <mxPoint x="30" y="30" as="offset" />
          </mxGeometry>
        </mxCell>
        <mxCell id="k6oxgYFFSl6XpWiv2npr-59" value="If user already &lt;br&gt;has an account" style="text;html=1;align=center;verticalAlign=middle;resizable=0;points=[];autosize=1;" vertex="1" parent="1">
          <mxGeometry x="7" y="221" width="100" height="30" as="geometry" />
        </mxCell>
        <mxCell id="k6oxgYFFSl6XpWiv2npr-60" value="Else" style="text;html=1;align=center;verticalAlign=middle;resizable=0;points=[];autosize=1;" vertex="1" parent="1">
          <mxGeometry x="27" y="320" width="40" height="20" as="geometry" />
        </mxCell>
        <mxCell id="k6oxgYFFSl6XpWiv2npr-62" value="" style="endArrow=none;dashed=1;html=1;entryX=-0.001;entryY=0.271;entryDx=0;entryDy=0;entryPerimeter=0;exitX=1;exitY=0.271;exitDx=0;exitDy=0;exitPerimeter=0;" edge="1" parent="1" source="k6oxgYFFSl6XpWiv2npr-58" target="k6oxgYFFSl6XpWiv2npr-58">
          <mxGeometry width="50" height="50" relative="1" as="geometry">
            <mxPoint x="660" y="256" as="sourcePoint" />
            <mxPoint x="-10" y="266" as="targetPoint" />
          </mxGeometry>
        </mxCell>
        <mxCell id="3nuBFxr9cyL0pnOWT2aG-5" value="Register" style="shape=umlLifeline;perimeter=lifelinePerimeter;container=1;collapsible=0;recursiveResize=0;rounded=0;shadow=0;strokeWidth=1;" parent="1" vertex="1">
          <mxGeometry x="390" y="80" width="100" height="840" as="geometry" />
        </mxCell>
        <mxCell id="k6oxgYFFSl6XpWiv2npr-51" value="" style="points=[];perimeter=orthogonalPerimeter;rounded=0;shadow=0;strokeWidth=1;" vertex="1" parent="3nuBFxr9cyL0pnOWT2aG-5">
          <mxGeometry x="45" y="194" width="10" height="180" as="geometry" />
        </mxCell>
        <mxCell id="k6oxgYFFSl6XpWiv2npr-10" value="" style="points=[];perimeter=orthogonalPerimeter;rounded=0;shadow=0;strokeWidth=1;" vertex="1" parent="1">
          <mxGeometry x="275" y="194" width="10" height="57" as="geometry" />
        </mxCell>
        <mxCell id="k6oxgYFFSl6XpWiv2npr-63" value="Alternatif" style="shape=umlFrame;whiteSpace=wrap;html=1;" vertex="1" parent="1">
          <mxGeometry x="-10" y="470" width="700" height="420" as="geometry" />
        </mxCell>
        <mxCell id="k6oxgYFFSl6XpWiv2npr-66" value="If Password is Valid" style="text;html=1;align=center;verticalAlign=middle;resizable=0;points=[];autosize=1;" vertex="1" parent="1">
          <mxGeometry x="-3" y="520" width="120" height="20" as="geometry" />
        </mxCell>
        <mxCell id="k6oxgYFFSl6XpWiv2npr-67" value="Else" style="text;html=1;align=center;verticalAlign=middle;resizable=0;points=[];autosize=1;" vertex="1" parent="1">
          <mxGeometry x="27" y="680" width="40" height="20" as="geometry" />
        </mxCell>
        <mxCell id="k6oxgYFFSl6XpWiv2npr-25" value="User Management" style="shape=umlLifeline;perimeter=lifelinePerimeter;container=1;collapsible=0;recursiveResize=0;rounded=0;shadow=0;strokeWidth=1;" vertex="1" parent="1">
          <mxGeometry x="550" y="79" width="100" height="841" as="geometry" />
        </mxCell>
        <mxCell id="k6oxgYFFSl6XpWiv2npr-49" value="" style="points=[];perimeter=orthogonalPerimeter;rounded=0;shadow=0;strokeWidth=1;" vertex="1" parent="k6oxgYFFSl6XpWiv2npr-25">
          <mxGeometry x="45" y="291" width="10" height="70" as="geometry" />
        </mxCell>
        <mxCell id="k6oxgYFFSl6XpWiv2npr-52" value="" style="points=[];perimeter=orthogonalPerimeter;rounded=0;shadow=0;strokeWidth=1;" vertex="1" parent="k6oxgYFFSl6XpWiv2npr-25">
          <mxGeometry x="45" y="591" width="10" height="169" as="geometry" />
        </mxCell>
        <mxCell id="k6oxgYFFSl6XpWiv2npr-57" value="Validation" style="verticalAlign=bottom;endArrow=block;shadow=0;strokeWidth=1;entryX=1.5;entryY=0.532;entryDx=0;entryDy=0;entryPerimeter=0;" edge="1" parent="k6oxgYFFSl6XpWiv2npr-25">
          <mxGeometry x="0.05" y="30" relative="1" as="geometry">
            <mxPoint x="60" y="447" as="sourcePoint" />
            <mxPoint x="60" y="466.98800000000006" as="targetPoint" />
            <Array as="points">
              <mxPoint x="90" y="447" />
              <mxPoint x="90" y="467" />
            </Array>
            <mxPoint as="offset" />
          </mxGeometry>
        </mxCell>
        <mxCell id="k6oxgYFFSl6XpWiv2npr-50" value="" style="points=[];perimeter=orthogonalPerimeter;rounded=0;shadow=0;strokeWidth=1;" vertex="1" parent="k6oxgYFFSl6XpWiv2npr-25">
          <mxGeometry x="45" y="421" width="10" height="109" as="geometry" />
        </mxCell>
      </root>
    </mxGraphModel>
  </diagram>
</mxfile>
